<?xml version="1.0" encoding="UTF-8" standalone="no"?>
<!-- Created with Inkscape (http://www.inkscape.org/) -->

<svg
   xmlns:dc="http://purl.org/dc/elements/1.1/"
   xmlns:cc="http://creativecommons.org/ns#"
   xmlns:rdf="http://www.w3.org/1999/02/22-rdf-syntax-ns#"
   xmlns:svg="http://www.w3.org/2000/svg"
   xmlns="http://www.w3.org/2000/svg"
   xmlns:sodipodi="http://sodipodi.sourceforge.net/DTD/sodipodi-0.dtd"
   xmlns:inkscape="http://www.inkscape.org/namespaces/inkscape"
   width="26.458334mm"
   height="25.01343mm"
   viewBox="0 0 26.458334 25.01343"
   version="1.1"
   id="svg8"
   inkscape:version="0.92.3 (2405546, 2018-03-11)"
   sodipodi:docname="Outlook.svg">
  <defs
     id="defs2" />
  <sodipodi:namedview
     id="base"
     pagecolor="#ffffff"
     bordercolor="#666666"
     borderopacity="1.0"
     inkscape:pageopacity="0.0"
     inkscape:pageshadow="2"
     inkscape:zoom="2.1646365"
     inkscape:cx="31.277453"
     inkscape:cy="47.75185"
     inkscape:document-units="mm"
     inkscape:current-layer="layer1"
     showgrid="false"
     inkscape:pagecheckerboard="true"
     fit-margin-top="0"
     fit-margin-left="0"
     fit-margin-right="0"
     fit-margin-bottom="0"
     inkscape:window-width="806"
     inkscape:window-height="405"
     inkscape:window-x="752"
     inkscape:window-y="602"
     inkscape:window-maximized="0" />
  <metadata
     id="metadata5">
    <rdf:RDF>
      <cc:Work
         rdf:about="">
        <dc:format>image/svg+xml</dc:format>
        <dc:type
           rdf:resource="http://purl.org/dc/dcmitype/StillImage" />
        <dc:title></dc:title>
      </cc:Work>
    </rdf:RDF>
  </metadata>
  <g
     inkscape:label="Layer 1"
     inkscape:groupmode="layer"
     id="layer1"
     transform="translate(-83.640437,-159.64446)">
    <g
       transform="matrix(0.40973521,0,0,0.40973521,50.940122,117.70241)"
       id="layer1-2"
       inkscape:label="Layer 1">
      <path
         inkscape:connector-curvature="0"
         id="path86"
         d="m 98.184952,159.52394 c -9.604371,-1.70356 -17.492261,-3.1042 -17.528641,-3.11253 -0.03638,-0.008 -0.06615,-10.55219 -0.06615,-23.43079 0,-12.87859 0.02977,-23.4223 0.06615,-23.43047 0.03638,-0.008 7.951971,-1.41415 17.590201,-3.12442 l 17.524058,-3.10958 0.0707,6.36557 0.0707,6.36557 13.2882,0.13229 13.2882,0.13229 0.60242,0.60267 0.60242,0.60266 v 15.59571 15.59572 l -0.60242,0.60266 -0.60242,0.60267 -13.2882,0.13229 -13.2882,0.13229 -0.1323,6.22138 -0.13229,6.22139 z"
         style="fill:#ffffff;stroke-width:0.26458332" />
      <path
         inkscape:connector-curvature="0"
         id="path99"
         d="m 97.866221,160.17237 -18.057812,-3.21151 v -24.08421 -24.08422 l 17.92552,-3.14815 c 9.859041,-1.73148 18.133881,-3.20165 18.388541,-3.26703 0.43184,-0.11088 0.46302,0.32866 0.46302,6.52655 v 6.64545 h 12.95214 c 8.92883,0 13.1524,0.0913 13.59686,0.29376 0.3546,0.16156 0.77692,0.58388 0.93849,0.93849 0.41287,0.90614 0.41287,31.55435 0,32.46049 -0.16157,0.3546 -0.58389,0.77693 -0.93849,0.9385 -0.44446,0.2025 -4.66803,0.29375 -13.59686,0.29375 h -12.95214 v 6.4823 c 0,5.02409 -0.0744,6.47611 -0.33073,6.45481 -0.1819,-0.0151 -8.45674,-1.47265 -18.388539,-3.23898 z m 44.383849,-25.19543 v -13.38063 l -0.76769,0.61449 c -0.42222,0.33797 -4.3532,3.50175 -8.7355,7.03063 -5.61136,4.5186 -8.16221,6.41615 -8.62513,6.41615 -0.43993,0 -1.79481,-0.91881 -4.09679,-2.77822 l -3.43947,-2.77821 v 9.12821 9.12822 h 12.83229 12.83229 z m -43.117945,8.61997 c 3.908905,-1.08594 6.340865,-5.23689 6.340865,-10.82281 0,-4.89573 -1.72792,-8.49228 -4.88289,-10.16342 -1.488544,-0.78845 -4.545511,-0.79421 -6.253805,-0.0118 -3.312874,1.51734 -5.271024,5.43585 -5.26433,10.53459 0.0052,3.92902 0.860906,6.31257 3.060641,8.52496 1.91433,1.92535 4.484554,2.63715 6.999519,1.93847 z m -3.986831,-4.56589 c -0.484524,-0.32743 -1.185894,-1.19063 -1.5586,-1.91823 -0.599602,-1.17055 -0.677866,-1.64289 -0.67953,-4.10105 -0.0017,-2.50338 0.07074,-2.926 0.732453,-4.27345 0.817598,-1.66489 1.639452,-2.33725 3.095674,-2.53257 1.942357,-0.26052 3.398319,1.08331 4.102399,3.78645 0.71981,2.76354 0.30213,6.329 -0.946898,8.0831 -1.130961,1.58829 -3.194457,2.00388 -4.745498,0.95575 z M 133.45268,126.2801 c 7.90649,-6.36166 8.79739,-7.15625 8.79739,-7.84634 v -0.76785 h -12.83229 -12.83229 v 5.01623 5.01623 l 3.75098,3.04711 c 2.29624,1.86536 3.86108,2.96296 4.03489,2.83011 0.15616,-0.11935 4.24275,-3.40232 9.08132,-7.29549 z"
         style="fill:#006fc4;stroke-width:0.26458332" />
    </g>
  </g>
</svg>
