<?xml version="1.0" standalone="no"?>
<!DOCTYPE svg PUBLIC "-//W3C//DTD SVG 20010904//EN"
 "http://www.w3.org/TR/2001/REC-SVG-20010904/DTD/svg10.dtd">
<svg version="1.0" xmlns="http://www.w3.org/2000/svg"
 width="171.000000pt" height="126.000000pt" viewBox="0 0 171.000000 126.000000"
 preserveAspectRatio="xMidYMid meet">
<metadata>
Created by potrace 1.14, written by Peter Selinger 2001-2017
</metadata>
<g transform="translate(0.000000,126.000000) scale(0.100000,-0.100000)"
fill="#fff" stroke="none">
<path d="M330 630 l0 -620 525 0 525 0 0 620 0 620 -525 0 -525 0 0 -620z
m970 0 l0 -530 -445 0 -445 0 0 530 0 530 445 0 445 0 0 -530z"/>
<path d="M10 630 l0 -510 140 0 140 0 0 40 0 40 -100 0 -100 0 0 430 0 430
100 0 100 0 0 40 0 40 -140 0 -140 0 0 -510z"/>
<path d="M1420 1100 l0 -40 100 0 100 0 0 -430 0 -430 -100 0 -100 0 0 -40 0
-40 140 0 140 0 0 510 0 510 -140 0 -140 0 0 -40z"/>
</g>
</svg>
